inDegrees=no
num_controls=7
num_derivatives=13
num_iterations=32
num_multipliers=7
num_parameters=0
num_slacks=7
num_states=26
objective=0.426629
objective_accelerations=0.057840
objective_balance=0.001134
objective_effort=0.015492
objective_height=0.346114
objective_ligament=0.006048
solver_duration=487.530072
status=Solve_Succeeded
success=true
DataType=double
version=3
OpenSimVersion=4.5
endheader
time	/jointset/ground_pelvis/pelvis_tilt/value	/jointset/ground_pelvis/pelvis_tx/value	/jointset/ground_pelvis/pelvis_ty/value	/jointset/hip_l/hip_flexion_l/value	/jointset/hip_l/hip_adduction_l/value	/jointset/hip_l/hip_rotation_l/value	/jointset/back/lumbar_extension/value	/jointset/patellofemoral_l/patellar_flexion_l/value	/jointset/knee_l/knee_flexion_l/value	/jointset/knee_l/knee_adduction_l/value	/jointset/knee_l/knee_rotation_l/value	/jointset/ankle_l/ankle_angle_l/value	/jointset/subtalar_l/subtalar_angle_l/value	/jointset/ground_pelvis/pelvis_tilt/speed	/jointset/ground_pelvis/pelvis_tx/speed	/jointset/ground_pelvis/pelvis_ty/speed	/jointset/hip_l/hip_flexion_l/speed	/jointset/hip_l/hip_adduction_l/speed	/jointset/hip_l/hip_rotation_l/speed	/jointset/back/lumbar_extension/speed	/jointset/patellofemoral_l/patellar_flexion_l/speed	/jointset/knee_l/knee_flexion_l/speed	/jointset/knee_l/knee_adduction_l/speed	/jointset/knee_l/knee_rotation_l/speed	/jointset/ankle_l/ankle_angle_l/speed	/jointset/subtalar_l/subtalar_angle_l/speed	/forceset/tau_hip_flexion_l	/forceset/tau_hip_adduction_l	/forceset/tau_hip_rotation_l	/forceset/tau_knee_flexion_l	/forceset/tau_ankle_angle_l	/forceset/tau_subtalar_angle_l	/forceset/tau_lumbar_extension	lambda_cid13_p0	lambda_cid13_p1	lambda_cid13_p2	lambda_cid13_p3	lambda_cid13_p4	lambda_cid13_p5	lambda_cid14_p0	/jointset/ground_pelvis/pelvis_tilt/accel	/jointset/ground_pelvis/pelvis_tx/accel	/jointset/ground_pelvis/pelvis_ty/accel	/jointset/hip_l/hip_flexion_l/accel	/jointset/hip_l/hip_adduction_l/accel	/jointset/hip_l/hip_rotation_l/accel	/jointset/back/lumbar_extension/accel	/jointset/patellofemoral_l/patellar_flexion_l/accel	/jointset/knee_l/knee_flexion_l/accel	/jointset/knee_l/knee_adduction_l/accel	/jointset/knee_l/knee_rotation_l/accel	/jointset/ankle_l/ankle_angle_l/accel	/jointset/subtalar_l/subtalar_angle_l/accel	gamma_cid13_p0	gamma_cid13_p1	gamma_cid13_p2	gamma_cid13_p3	gamma_cid13_p4	gamma_cid13_p5	gamma_cid14_p0
1	-0.4486030319145269	-0.001064447819478744	0.5965427761746597	1.690759303861203	-0.3485017000309762	0.1500101950885609	-0.4362159247789337	1.503481305453881	1.503481305453883	0.04180053331477021	-0.1743287571378737	0.4349683462588281	0.2457988371915752	-0.1322160773025186	0.006614606347332824	0.04527136603757127	-0.01934988706137926	-0.005079744908053636	-0.05465702755076077	-0.002515581440335986	-0.1823831641950956	-0.1823831641950985	-0.02281936054123454	-0.0005127372635255688	-0.04703774555341315	-0.0364528523137396	-0.2346000811283907	0.08571117092418816	-0.007661904658167153	-0.2959257606610339	-0.009526744012237669	-0.02049363175875156	0.2059552551998994	-39.55750769071095	27.04208422913939	-17.40301888741193	2.120383245441458	-541.9450365271166	-27.41169153709482	-0.02364790106698774	1.449688754238573	0.2893645483652317	1.99719692628208	-6.644862615701115	-0.2753654732956168	-1.604679012470118	-0.04635557697019606	-5.542500260792759	-5.542500260792755	-0.8488983478347559	-0.02344915369082123	-0.8286878299192484	-0.9303677515707905	-8.313562545713055e-09	-1.147724808887927e-07	-3.585388187700364e-08	-6.453466148656671e-09	-8.644883705437981e-09	-1.173230245104394e-07	-1.568451855198111e-09
1.01	-0.4498533148531515	-0.0009837922294982108	0.5970951138965831	1.690234576039874	-0.3485656879312169	0.149384807319907	-0.4362422698361413	1.501380764077057	1.501380764077031	0.04152940088699317	-0.1743336729552981	0.4344565417053991	0.2453887744107059	-0.1178169047085375	0.009527128456173923	0.06518545211923626	-0.08559754552853671	-0.007713374757266183	-0.07041246931545632	-0.002736026956038884	-0.2377144740221111	-0.2377144740221176	-0.03140208714882948	-0.0004711221958037619	-0.05533123342720379	-0.04555085299890432	-0.2351444378172363	0.08566082019372284	-0.007663426926205808	-0.2947288255374386	-0.01016710577568696	-0.02041353611685531	0.2062900886946061	-39.70764728469496	26.95779900955537	-17.30301345061832	2.051101858421126	-541.7600426778522	-27.3522370193936	-0.02366611788373405	1.438571471848213	0.2937858601697287	1.986903033572319	-6.614998738886397	-0.2566827861399627	-1.55977849146406	-0.007278579962872899	-5.526850232075367	-5.526850232075887	-0.8622182632394122	0.01784427649302613	-0.8308979888202108	-0.8981596761669476	-9.219727333052441e-09	-1.456707967556079e-07	-4.713777402929037e-08	-1.344691256947153e-08	-1.236944600405789e-08	-1.426497618558025e-07	-2.685550460293573e-09
1.02	-0.4509588980738665	-0.0008736934548233692	0.5978462701962155	1.689047315378465	-0.3486558763390382	0.1486021047870008	-0.436270297256676	1.49872722882428	1.498727228824281	0.0411725895039653	-0.1743381971341527	0.4338615585286899	0.2448880029331495	-0.1032761337197621	0.01250324328619463	0.08503508157943747	-0.1518564550622366	-0.01031984642270812	-0.08611998039994548	-0.002852054115438373	-0.2929819393859043	-0.2929819393859145	-0.03995515159713031	-0.0004344095485075156	-0.06367347020943953	-0.05459459165117184	-0.235688794506633	0.08561046946319224	-0.007664949194172262	-0.2935318904138324	-0.01080746753906153	-0.02033344047502241	0.2066249221887332	-39.85978776577484	26.87097909376725	-17.19930830862156	1.97122521138211	-541.686243989164	-27.29302816214955	-0.02368580157700366	1.478008433197275	0.3020830926013061	1.984305601989343	-6.647112829009695	-0.2699338365415302	-1.595092876428834	-0.02547190570851961	-5.529731368148246	-5.529731368148252	-0.8429659159759459	-0.02442963777589408	-0.838437611607967	-0.9195153449912232	-9.790829831918175e-09	-1.760967852133576e-07	-5.668240032541954e-08	-2.009026751096386e-08	-1.572548718890819e-08	-1.7073270265157e-07	-3.504564909083648e-09
1.03	-0.4519193603718069	-0.0007335358875503168	0.5987954163893975	1.687198690391013	-0.3487719166769876	0.1476625351148635	-0.4362976660744265	1.495521346945093	1.495521346945092	0.04073052039587058	-0.1743423588692182	0.4331826387953623	0.2442970468634038	-0.08889490551479413	0.01553668816195835	0.10476484351036	-0.2177399817055787	-0.01287626558607468	-0.1017841172279656	-0.0024714986414564	-0.3481832208092118	-0.3481832208092087	-0.04844682850325287	-0.0003962696349729343	-0.07214584807557446	-0.06358996944191796	-0.2360458655082585	0.08559003090546921	-0.007650187605608873	-0.2921286303078163	-0.01143306350952311	-0.02023503980204138	0.206887054340887	-39.98473690949312	26.76122490655112	-17.0802694398837	1.880025223590382	-541.352859782478	-27.2188857249897	-0.02371742910922787	1.406391406917241	0.3052324982607569	1.962910620843742	-6.539690289853161	-0.2466886566095435	-1.550613315208763	0.09235089628514853	-5.51364331397126	-5.513643313969219	-0.8505126992437272	0.01816045878699023	-0.8569551827245689	-0.8885101149919297	-1.03585133278403e-08	-2.065179540036679e-07	-6.620927901077157e-08	-2.673005009042228e-08	-1.907776795423024e-08	-1.988437679723417e-07	-4.32053768280938e-09
1.04	-0.4527383681091399	-0.0005627924088795828	0.5999409800283284	1.684695086595547	-0.3489131597466449	0.146566616228589	-0.4363167230129603	1.491763788894764	1.491763788894766	0.04020388569446151	-0.1743460942745678	0.4324179318216547	0.2436163447919753	-0.07498522159901219	0.01862042556573093	0.1243185707292809	-0.2828522166631925	-0.01536039276444491	-0.1173898232247946	-0.001189678274136207	-0.4033171736144915	-0.4033171736144752	-0.05686827026191227	-0.0003491436066845517	-0.08083091828603933	-0.07254379198768808	-0.2364029365099779	0.0855695923477023	-0.007635426017008342	-0.2907253702018043	-0.01205865947998467	-0.02013663912913267	0.2071491864929365	-40.11196320208833	26.64899573752782	-16.95755335272085	1.778994760873849	-541.1321186275147	-27.14598042662555	-0.02375070443489392	1.383699575359901	0.312141598203227	1.949098659589025	-6.492854491864161	-0.2554754395423021	-1.583406710190616	0.1547810729603618	-5.516265644542679	-5.516265644542678	-0.8289188864833267	-0.02263241482509784	-0.8809760804736642	-0.9112042959959078	-1.198447070575174e-08	-2.32201022551073e-07	-7.358776963387072e-08	-3.232214382106901e-08	-2.39016405893951e-08	-2.087128805878511e-07	-6.72265583466401e-09
1.05	-0.453418874656386	-0.0003608416829966137	0.6012812553839756	1.68154252726716	-0.3490789257296456	0.1453149385880818	-0.4363202722438111	1.487455567009389	1.487455567009401	0.0395934935698767	-0.1743493746671316	0.4315656264288145	0.2428464588426087	-0.06101896576089934	0.02179005072599935	0.143712680513168	-0.3477000812480204	-0.01778587631876794	-0.1329295514451012	0.0004490263306647342	-0.4582820265172252	-0.4582820265172075	-0.06519515519255281	-0.0003121985333852878	-0.08963385110299583	-0.08141328253576564	-0.2367130564528172	0.08557564176058227	-0.007615326602116342	-0.2888274541216838	-0.01293808801064245	-0.01999912084786094	0.2073385038842926	-40.28820588019594	26.50168901440039	-16.79878019618456	1.703312220775342	-540.5528462220257	-27.03648488210668	-0.02378406286875719	1.417654113637421	0.3224150101497846	1.930988351309668	-6.48682032385091	-0.2350268109266566	-1.536853949083503	0.1637942946982477	-5.479816711973195	-5.479816711972921	-0.8323514825383274	0.01603772557725843	-0.8805201600199505	-0.87175319002037	-1.364349914247535e-08	-2.577360254658874e-07	-8.089912313002448e-08	-3.788149727519039e-08	-2.877150047049254e-08	-2.180119321813212e-07	-9.174341029585158e-09
1.06	-0.453956805540122	-0.0001265862984681033	0.6028147560801654	1.677740275716545	-0.3492687349476944	0.1439083440511366	-0.4363083586009437	1.482599052275221	1.482599052275218	0.03890027695873353	-0.1743524496575211	0.4306251780522617	0.2419884916365995	-0.04647008889878033	0.02508135729483917	0.1629636388379021	-0.4127906611152022	-0.02016903977505975	-0.1483732025107217	0.00190289655377094	-0.5129757433733405	-0.5129757433733213	-0.07343316757055247	-0.0003080631732941435	-0.09845951502848281	-0.0901600433161103	-0.2370231763954715	0.08558169117346022	-0.007595227187264016	-0.2869295380415748	-0.01381751654133741	-0.01986160256661411	0.2075278212758391	-40.46711198211651	26.35207775833086	-16.63647447885763	1.617833963589708	-540.0884272315221	-26.92947134193367	-0.0238191794447276	1.500223780160954	0.3364778799176503	1.920468367758446	-6.541397548335062	-0.2470114199360907	-1.56419127925339	0.1178141966214602	-5.462038435218968	-5.46203843521898	-0.811144375955169	-0.02919435746668984	-0.8855223021794887	-0.8866583424492186	-1.578466465249363e-08	-2.806466759169721e-07	-8.757953518099059e-08	-3.862322741609029e-08	-3.281640999223976e-08	-2.383022598256736e-07	-9.682372016148231e-09
